<svg class="border shadow-md" viewBox="0 0 794.64 794.64" style="width: 794.64px; height: 794.64px;" xmlns="http://www.w3.org/2000/svg" preserveAspectRatio="none"><rect class="bg" id="bg" x="0" y="0" width="794.64" height="794.64" fill="#ffffff"/><g transform="rotate(0 397.32 397.32)"><path d="M -497.32 -49.46 S -258.66 -89.20&#10;            0.00 -49.46 238.66 -128.46&#10;            497.32 -49.46 554.64 -126.46&#10;            994.64 -49.46 1229.96 -89.20&#10;            1491.96 -49.46 h 110 V 994.64 H -497.32 Z" fill="#112B3C" id="-1"/><path d="M -497.32 30.00 S -258.66 -43.00&#10;            0.00 30.00 106.32 -9.73&#10;            497.32 30.00 496.64 -9.73&#10;            994.64 30.00 1020.96 -33.00&#10;            1491.96 30.00 h 110 V 994.64 H -497.32 Z" fill="#183040" id="0"/><path id="1" d="M -497.32 109.46 S -454.00 58.46&#10;            0.00 109.46 212.32 69.73&#10;            497.32 109.46 735.98 69.73&#10;            994.64 109.46 1233.30 69.73&#10;            1491.96 109.46 h 110 V 994.64 H -497.32 Z" fill="#1f3544"/><path id="2" d="M -497.32 188.93 S -258.66 126.93&#10;            0.00 188.93 238.66 131.93&#10;            497.32 188.93 681.64 149.20&#10;            994.64 188.93 1064.96 149.20&#10;            1491.96 188.93 h 110 V 994.64 H -497.32 Z" fill="#263a48"/><path id="3" d="M -497.32 268.39 S -290.00 228.66&#10;            0.00 268.39 141.32 228.66&#10;            497.32 268.39 735.98 221.39&#10;            994.64 268.39 1233.30 219.39&#10;            1491.96 268.39 h 110 V 994.64 H -497.32 Z" fill="#2d3f4c"/><path id="4" d="M -497.32 347.86 S -258.66 308.12&#10;            0.00 347.86 28.32 308.12&#10;            497.32 347.86 540.64 285.86&#10;            994.64 347.86 1233.30 308.12&#10;            1491.96 347.86 h 110 V 994.64 H -497.32 Z" fill="#344450"/><path id="5" d="M -497.32 427.32 S -335.00 378.32&#10;            0.00 427.32 0.32 361.32&#10;            497.32 427.32 735.98 362.32&#10;            994.64 427.32 1084.96 387.59&#10;            1491.96 427.32 h 110 V 994.64 H -497.32 Z" fill="#3b4954"/><path id="6" d="M -497.32 506.78 S -258.66 467.05&#10;            0.00 506.78 238.66 467.05&#10;            497.32 506.78 735.98 437.78&#10;            994.64 506.78 1233.30 467.05&#10;            1491.96 506.78 h 110 V 994.64 H -497.32 Z" fill="#424e58"/><path id="7" d="M -497.32 586.25 S -385.00 546.52&#10;            0.00 586.25 238.66 524.25&#10;            497.32 586.25 496.64 546.52&#10;            994.64 586.25 1233.30 546.52&#10;            1491.96 586.25 h 110 V 994.64 H -497.32 Z" fill="#49535c"/><path id="8" d="M -497.32 665.71 S -343.00 625.98&#10;            0.00 665.71 46.32 625.98&#10;            497.32 665.71 735.98 625.98&#10;            994.64 665.71 1233.30 623.71&#10;            1491.96 665.71 h 110 V 994.64 H -497.32 Z" fill="#505860"/><path id="9" d="M -497.32 745.18 S -258.66 673.18&#10;            0.00 745.18 36.32 705.44&#10;            497.32 745.18 685.64 705.44&#10;            994.64 745.18 990.96 673.18&#10;            1491.96 745.18 h 110 V 994.64 H -497.32 Z" fill="#575d64"/></g></svg>